<svg width="256" height="256" viewBox="0 0 256 256" fill="none" xmlns="http://www.w3.org/2000/svg">
<rect width="256" height="256" rx="25" fill="#3069FF"/>
<path d="M47.663 144.88C44.7617 144.88 43.055 144.368 42.543 143.344C42.031 142.32 41.775 140.443 41.775 137.712V39.92C41.775 39.92 41.8603 39.0667 42.031 37.36C42.2017 35.6533 43.6523 34.8 46.383 34.8H68.399C79.151 34.8 88.1963 36.336 95.535 39.408C103.044 42.3093 108.676 47.6 112.431 55.28C116.356 62.7893 118.319 73.5413 118.319 87.536C118.319 99.1413 116.868 108.699 113.967 116.208C111.236 123.547 107.482 129.349 102.703 133.616C98.095 137.712 92.8897 140.613 87.087 142.32C81.455 144.027 75.6523 144.88 69.679 144.88H47.663ZM39.215 214V39.92C39.215 39.92 39.3857 39.0667 39.727 37.36C40.239 35.6533 41.775 34.8 44.335 34.8H62.767C65.327 34.8 66.7777 35.6533 67.119 37.36C67.631 39.0667 67.887 39.92 67.887 39.92V208.88C67.887 210.587 67.4603 211.781 66.607 212.464C65.7537 213.147 63.279 213.573 59.183 213.744C55.2577 213.915 48.6017 214 39.215 214ZM107.567 214.768C105.348 214.768 102.788 214.683 99.887 214.512C96.9857 214.341 93.9137 214.171 90.671 214C90.3297 198.981 89.0497 186.608 86.831 176.88C84.6123 166.981 82.0523 159.301 79.151 153.84C76.4203 148.208 73.9457 144.283 71.727 142.064C69.679 139.675 68.655 138.48 68.655 138.48C68.655 138.48 68.399 137.883 67.887 136.688C67.375 135.493 68.2283 134.299 70.447 133.104L86.575 123.888C89.3057 123.888 91.0977 124.827 91.951 126.704C91.951 126.704 93.4017 128.155 96.303 131.056C99.2043 133.787 102.532 138.395 106.287 144.88C110.212 151.195 113.711 159.557 116.783 169.968C120.026 180.379 121.903 193.179 122.415 208.368C122.415 210.757 121.647 212.464 120.111 213.488C118.746 214.341 114.564 214.768 107.567 214.768ZM67.887 118.512H73.007C75.7377 118.512 78.0417 117.659 79.919 115.952C81.7963 114.245 83.247 111.088 84.271 106.48C85.4657 101.701 86.063 94.8747 86.063 86C86.063 79.856 85.6363 74.8213 84.783 70.896C84.1003 66.9707 82.9057 64.1547 81.199 62.448C79.663 60.5707 77.5297 59.632 74.799 59.632H67.887V118.512ZM140.395 214V39.92C140.395 38.2133 140.907 36.9333 141.931 36.08C142.955 35.2267 144.832 34.8 147.563 34.8H172.651C178.112 34.8 183.403 35.3973 188.523 36.592C193.643 37.616 198.251 39.5787 202.347 42.48C206.443 45.3813 209.686 49.4773 212.075 54.768C214.635 59.888 215.915 66.6293 215.915 74.992C215.915 83.696 214.72 91.0347 212.331 97.008C209.942 102.811 206.955 107.333 203.371 110.576C199.787 113.648 196.118 115.44 192.363 115.952C195.435 116.293 198.678 117.061 202.091 118.256C205.504 119.28 208.662 121.157 211.563 123.888C214.635 126.448 217.11 130.117 218.987 134.896C220.864 139.504 221.803 145.563 221.803 153.072C221.803 159.899 221.206 166.384 220.011 172.528C218.987 178.501 217.28 184.048 214.891 189.168C212.502 194.117 209.43 198.469 205.675 202.224C201.92 205.979 197.398 208.88 192.107 210.928C186.987 212.976 180.928 214 173.931 214H140.395ZM169.579 189.168H174.699C176.747 189.168 178.539 188.4 180.075 186.864C181.611 185.328 182.891 183.109 183.915 180.208C185.11 177.307 185.963 173.808 186.475 169.712C187.158 165.616 187.499 160.923 187.499 155.632C187.499 149.829 187.243 145.221 186.731 141.808C186.219 138.395 185.451 135.835 184.427 134.128C183.403 132.251 182.123 131.056 180.587 130.544C179.051 129.861 177.259 129.52 175.211 129.52H169.579V189.168ZM169.579 105.456H174.443C176.491 105.456 178.198 104.432 179.563 102.384C181.099 100.336 182.208 97.52 182.891 93.936C183.744 90.1813 184.171 85.9147 184.171 81.136C184.171 75.1627 183.744 70.64 182.891 67.568C182.208 64.496 181.184 62.448 179.819 61.424C178.454 60.4 177.003 59.888 175.467 59.888H169.579V105.456Z" fill="white"/>
</svg>
